<svg width="26" height="10" viewBox="0 0 26 10" fill="none" xmlns="http://www.w3.org/2000/svg">
    <path d="M2.33536 0.272761L4.44474 6.90344H4.5257L6.63934 0.272761H8.68479L5.67627 9.00003H3.29843L0.285645 0.272761H2.33536Z" fill="white"/>
    <path d="M17.2629 4.6364C17.2629 5.5881 17.0825 6.39776 16.7217 7.06537C16.3638 7.73299 15.8751 8.24293 15.2558 8.5952C14.6393 8.94464 13.9462 9.11935 13.1763 9.11935C12.4007 9.11935 11.7047 8.94322 11.0882 8.59094C10.4717 8.23867 9.98451 7.72873 9.62655 7.06111C9.2686 6.3935 9.08962 5.58526 9.08962 4.6364C9.08962 3.68469 9.2686 2.87503 9.62655 2.20742C9.98451 1.53981 10.4717 1.03128 11.0882 0.681852C11.7047 0.329579 12.4007 0.153442 13.1763 0.153442C13.9462 0.153442 14.6393 0.329579 15.2558 0.681852C15.8751 1.03128 16.3638 1.53981 16.7217 2.20742C17.0825 2.87503 17.2629 3.68469 17.2629 4.6364ZM15.3922 4.6364C15.3922 4.01992 15.2998 3.50003 15.1152 3.07674C14.9334 2.65344 14.6763 2.33242 14.3439 2.11367C14.0115 1.89492 13.6223 1.78555 13.1763 1.78555C12.7302 1.78555 12.341 1.89492 12.0087 2.11367C11.6763 2.33242 11.4177 2.65344 11.2331 3.07674C11.0513 3.50003 10.9604 4.01992 10.9604 4.6364C10.9604 5.25287 11.0513 5.77276 11.2331 6.19606C11.4177 6.61935 11.6763 6.94037 12.0087 7.15912C12.341 7.37787 12.7302 7.48725 13.1763 7.48725C13.6223 7.48725 14.0115 7.37787 14.3439 7.15912C14.6763 6.94037 14.9334 6.61935 15.1152 6.19606C15.2998 5.77276 15.3922 5.25287 15.3922 4.6364Z" fill="white"/>
    <path d="M17.8989 1.79407V0.272761H25.0665V1.79407H22.3947V9.00003H20.5708V1.79407H17.8989Z" fill="white"/>
</svg>
